#!OML:ASF F:\VICON\USERDATA\INSTALL\rory3\rory3.ASF
:FULLY-SPECIFIED
:DEGREES
325
root -0.283316 17.9964 30.0152 -3.74258 -0.27949 -5.3943
lowerback 9.49282 0.0171955 3.21864
upperback 0.64131 0.494107 2.60794
thorax -4.65685 0.203595 0.838611
lowerneck -14.7542 -2.50366 -2.04
upperneck 21.2694 -3.28773 1.27082
head 9.1746 -1.56384 0.37473
rclavicle 4.18069e-015 -1.86858e-014
rhumerus -33.2316 -25.9662 -74.8297
rradius 18.4499
rwrist 13.8532
rhand -19.1911 24.9793
rfingers 7.12502
rthumb 7.1207 -4.88087
lclavicle 4.18069e-015 -1.86858e-014
lhumerus -27.0418 0.348876 83.2972
lradius 27.7517
lwrist 4.0748
lhand -26.2729 25.0833
lfingers 7.12502
lthumb 0.28221 55.0628
rfemur -11.8565 5.39091 32.0276
rtibia 31.0491
rfoot -11.6071 -5.95748
rtoes 10.3632
lfemur -13.8415 1.27357 -13.5926
ltibia 71.5518
lfoot 2.78319 -11.5037
ltoes -8.08614
326
root -0.29374 17.9953 30.1847 -3.83662 -0.470697 -5.47224
lowerback 9.55664 0.136009 3.26118
upperback 0.730526 0.655559 2.59554
thorax -4.59723 0.283446 0.779858
lowerneck -14.9555 -2.53745 -1.9833
upperneck 21.376 -3.33223 1.21061
head 9.24757 -1.58487 0.336216
rclavicle 2.00897e-014 -7.15625e-015
rhumerus -32.6653 -25.2994 -75.434
rradius 19.0984
rwrist 13.5218
rhand -19.2558 25.424
rfingers 7.12502
rthumb 7.05821 -4.43835
lclavicle 2.00897e-014 -7.15625e-015
lhumerus -27.3896 0.703217 83.3005
lradius 27.756
lwrist 4.0474
lhand -26.1893 24.7449
lfingers 7.12502
lthumb 0.362949 54.7243
rfemur -11.0284 5.49434 32.2517
rtibia 30.9143
rfoot -12.1255 -5.95466
rtoes 11.0102
lfemur -14.9753 1.56128 -13.4688
ltibia 71.7501
lfoot 1.63994 -10.9761
ltoes -5.77122
327
root -0.301747 17.9909 30.3486 -3.83821 -0.73163 -5.48798
lowerback 9.66743 0.303013 3.31064
upperback 0.689098 0.888098 2.54753
thorax -4.69877 0.395456 0.670533
lowerneck -15.0488 -2.60331 -1.87257
upperneck 21.5262 -3.40132 0.996482
head 9.31217 -1.63063 0.233826
rclavicle -6.09399e-015 1.59028e-014
rhumerus -32.3969 -23.1842 -76.5036
rradius 20.4478
rwrist 11.8583
rhand -19.3126 25.203
rfingers 7.12502
rthumb 7.00343 -4.66115
lclavicle -6.09399e-015 1.59028e-014
lhumerus -27.8633 0.856477 83.3821
lradius 27.7012
lwrist 4.11335
lhand -26.0953 24.765
lfingers 7.12502
lthumb 0.453709 54.7443
rfemur -10.3448 5.66272 32.3818
rtibia 30.8827
rfoot -12.7401 -5.97649
rtoes 11.9275
lfemur -16.1239 1.90576 -13.455
ltibia 71.741
lfoot 0.326795 -10.2388
ltoes -3.15888
328
root -0.305246 17.9875 30.511 -3.74745 -0.940184 -5.54597
lowerback 9.77257 0.429862 3.44701
upperback 0.524431 1.08099 2.48233
thorax -4.92417 0.483314 0.499093
lowerneck -14.834 -2.62779 -1.88619
upperneck 21.6248 -3.43751 0.996531
head 9.30738 -1.64954 0.233945
rclavicle -1.54151e-014 -4.96962e-015
rhumerus -32.1734 -21.8517 -77.1102
rradius 21.1892
rwrist 11.0176
rhand -19.3461 25.2037
rfingers 7.12502
rthumb 6.97104 -4.66148
lclavicle -1.54151e-014 -4.96962e-015
lhumerus -28.4134 0.767025 83.4738
lradius 27.4163
lwrist 4.08228
lhand -26.8799 23.4751
lfingers 7.12502
lthumb -0.304058 53.4546
rfemur -9.82307 5.63251 32.5265
rtibia 30.8649
rfoot -13.2246 -5.92445
rtoes 11.3428
lfemur -17.3647 2.17498 -13.4184
ltibia 71.5803
lfoot -1.05308 -9.4446
ltoes -1.75725
329
root -0.313158 17.9865 30.6779 -3.74522 -1.0937 -5.44269
lowerback 9.84182 0.541218 3.31746
upperback 0.480747 1.21553 2.3931
thorax -5.00719 0.550295 0.459324
lowerneck -14.738 -2.63076 -1.88204
upperneck 21.6094 -3.45088 1.02564
head 9.28483 -1.65277 0.242982
rclavicle -5.91074e-015 3.18055e-015
rhumerus -31.6994 -21.1221 -77.5654
rradius 21.5442
rwrist 10.6725
rhand -19.5421 25.1631
rfingers 7.12502
rthumb 6.7819 -4.70827
lclavicle -5.91074e-015 3.18055e-015
lhumerus -28.8204 0.626085 83.5792
lradius 27.0065
lwrist 4.60744
lhand -28.2194 17.4641
lfingers 7.12502
lthumb -1.59777 47.4379
rfemur -9.20134 5.51631 32.5213
rtibia 30.8443
rfoot -13.7318 -5.91391
rtoes 10.7359
lfemur -18.463 2.37802 -13.5561
ltibia 71.2357
lfoot -2.22844 -8.75405
ltoes -1.68271
330
root -0.317303 17.9784 30.8451 -3.72444 -1.32381 -5.61819
lowerback 9.78808 0.663149 3.5816
upperback 0.545032 1.39913 2.35284
thorax -4.89967 0.636265 0.244639
lowerneck -14.8364 -2.63549 -1.83603
upperneck 21.4596 -3.48 1.09247
head 9.25186 -1.65495 0.254157
rclavicle -2.38945e-014 8.94531e-016
rhumerus -31.0722 -20.2986 -78.1412
rradius 22.1939
rwrist 10.1066
rhand -19.5132 23.9731
rfingers 7.12502
rthumb 6.80972 -5.8974
lclavicle -2.38945e-014 8.94531e-016
lhumerus -29.0485 0.551611 83.6286
lradius 26.5952
lwrist 5.62906
lhand -27.5646 20.2039
lfingers 7.12502
lthumb -0.965394 50.1815
rfemur -8.54907 5.45761 32.7876
rtibia 30.8123
rfoot -14.225 -5.8147
rtoes 10.7695
lfemur -19.5326 2.61855 -13.3995
ltibia 70.782
lfoot -3.27468 -8.1904
ltoes -2.12561
331
root -0.31618 17.9711 31.0169 -3.67776 -1.63496 -5.95278
lowerback 9.70917 0.760571 4.0755
upperback 0.533733 1.579 2.358
thorax -4.85086 0.714714 -0.0499837
lowerneck -14.5633 -2.59726 -1.79332
upperneck 21.2051 -3.44659 1.13204
head 9.11234 -1.63422 0.269781
rclavicle -2.99233e-014 -4.03533e-014
rhumerus -30.5745 -19.1258 -78.7198
rradius 22.8124
rwrist 9.12627
rhand -19.502 23.3406
rfingers 7.12502
rthumb 6.82052 -6.52955
lclavicle -2.99233e-014 -4.03533e-014
lhumerus -29.5845 0.67948 83.6171
lradius 26.5624
lwrist 6.22563
lhand -27.2006 20.0704
lfingers 7.12502
lthumb -0.613865 50.0493
rfemur -7.87445 5.41037 33.1835
rtibia 30.7576
rfoot -14.7222 -5.58589
rtoes 10.903
lfemur -20.4829 2.91745 -13.1006
ltibia 70.1699
lfoot -4.33944 -7.41195
ltoes -3.56963
332
root -0.314898 17.9625 31.1814 -3.63389 -1.92888 -6.1979
lowerback 9.83517 0.830826 4.42909
upperback 0.489061 1.72107 2.35535
thorax -4.95421 0.77439 -0.272354
lowerneck -14.408 -2.63954 -1.82596
upperneck 21.063 -3.50535 1.16472
head 9.03676 -1.66241 0.282048
rclavicle -6.11884e-015 -3.01159e-014
rhumerus -29.9755 -18.0935 -79.257
rradius 23.0534
rwrist 7.98454
rhand -19.9006 23.8772
rfingers 7.12502
rthumb 6.4358 -6.00505
lclavicle -6.11884e-015 -3.01159e-014
lhumerus -30.0637 0.99754 83.5219
lradius 26.7564
lwrist 6.396
lhand -26.9078 21.257
lfingers 7.12502
lthumb -0.331059 51.2365
rfemur -7.23803 5.51275 33.4939
rtibia 30.6546
rfoot -15.1297 -5.5233
rtoes 10.894
lfemur -21.5534 3.16593 -12.9143
ltibia 69.3936
lfoot -4.96797 -6.62847
ltoes -2.83703
333
root -0.314964 17.9504 31.3407 -3.57149 -2.23108 -6.57733
lowerback 10.2129 0.910231 4.84269
upperback 0.350089 1.90947 2.42258
thorax -5.29545 0.849406 -0.468056
lowerneck -14.5702 -2.71811 -1.89115
upperneck 21.2227 -3.6066 1.19674
head 9.12559 -1.70982 0.288339
rclavicle -2.95847e-015 -3.69739e-014
rhumerus -29.5435 -17.4138 -79.5253
rradius 23.8978
rwrist 8.54069
rhand -19.3214 21.4761
rfingers 7.12502
rthumb 6.99495 -8.38834
lclavicle -2.95847e-015 -3.69739e-014
lhumerus -30.5112 1.69163 83.2991
lradius 26.8356
lwrist 6.07101
lhand -26.1568 24.2588
lfingers 7.12502
lthumb 0.394282 54.2382
rfemur -6.61752 5.5973 33.978
rtibia 30.483
rfoot -15.486 -5.5242
rtoes 10.4763
lfemur -22.7051 3.36064 -12.541
ltibia 68.4654
lfoot -5.354 -6.33146
ltoes -6.53473
